<?xml version="1.0" encoding="UTF-8"?>
<svg width="84px" height="80px" viewBox="0 0 84 80" version="1.1" xmlns="http://www.w3.org/2000/svg" xmlns:xlink="http://www.w3.org/1999/xlink">
    <!-- Generator: sketchtool 53 (72520) - https://sketchapp.com -->
    <title>2AC06F57-8849-4243-B16E-EDD6432F2B3C</title>
    <desc>Created with sketchtool.</desc>
    <g id="Sample-Site" stroke="none" stroke-width="1" fill="none" fill-rule="evenodd">
        <g id="Sample-Site---Desktop" transform="translate(-684.000000, -2125.000000)">
            <g id="menu" transform="translate(0.000000, 1965.000000)">
                <g id="icon" transform="translate(672.000000, 160.000000)">
                    <circle id="Oval" fill="#FAEDF0" cx="56" cy="40" r="40"></circle>
                    <circle id="Oval" fill="#FAEDF0" opacity="0" cx="40" cy="48" r="40"></circle>
                    <path d="M12.57088,61.06298 L12.68648,61.06298 C12.63608,60.307742 12.57088,59.556926 12.57088,58.787168 C12.57088,40.703828 28.99216,25.939562 46.85656,24.763838 L46.85656,20.098628 L42.28528,20.098628 C41.02312,20.098628 39.99984,19.078598 39.99984,17.823872 C39.99984,16.563602 41.02312,15.547004 42.28528,15.547004 L55.99968,15.547004 C57.26192,15.547004 58.2852,16.563602 58.2852,17.823872 C58.2852,19.078598 57.26192,20.098628 55.99968,20.098628 L51.42792,20.098628 L51.42792,24.763838 C69.29272,25.939562 85.71408,40.703828 85.71408,58.787168 C85.71408,59.556926 85.6488,60.307742 85.59864,61.06298 L85.71408,61.06298 L85.71408,65.61467 L12.57088,65.61467 L12.57088,61.06298 Z M17.25776,61.06298 L81.02696,61.06298 C81.08472,60.309986 81.14232,59.556926 81.14232,58.787168 C81.14232,42.446756 65.55336,29.20214 49.14256,29.20214 C32.73176,29.20214 17.1424,42.446756 17.1424,58.787168 C17.1424,59.556926 17.20016,60.309986 17.25776,61.06298 Z M14.8568,70.166492 L83.42832,70.166492 C84.6904,70.166492 85.71408,71.18639 85.71408,72.44336 C85.71408,73.699274 84.6904,74.718182 83.42832,74.718182 L14.8568,74.718182 C13.59456,74.718182 12.57088,73.699274 12.57088,72.44336 C12.57088,71.18639 13.59456,70.166492 14.8568,70.166492 Z" id="Combined-shape-3589" fill="#BF1330" fill-rule="nonzero"></path>
                </g>
            </g>
        </g>
    </g>
</svg>